# xmcd
#
# Track frame offsets:
#	150
#	18965
#	37492
#	55893
#	72315
#	91764
#	113663
#	131692
#	151989
#	168638
#	187586
#	210228
#	223810
#	242839
#	262735
#
# Disc length: 3739 seconds
#
# Revision: 1
# Processed by: cddbd v1.5.2PL0 Copyright (c) Steve Scherf et al.
# Submitted via: audiograbber 1.83.01
#
DISCID=ca0e990f
DTITLE=The Bluesman - The Bluesman meets Delta Whiskey
DYEAR=2018
DGENRE=Blues
TTITLE0=I just want to make love to you
TTITLE1=Further on up the road
TTITLE2=Tall Rebecca Blues
TTITLE3=My Babe
TTITLE4=Junior's wailing
TTITLE5=Still got the Blues
TTITLE6=Walking Blues
TTITLE7=This Train
TTITLE8=I Thank you
TTITLE9=Sweet home Chicago
TTITLE10=Georgia
TTITLE11=Sea cruise
TTITLE12=Rock me Baby
TTITLE13=Milk cow calf blues
TTITLE14=Tush
EXTD=www.thebluesman.de\nwww.delta-whiskey.de
EXTT0=
EXTT1=
EXTT2=
EXTT3=
EXTT4=
EXTT5=
EXTT6=
EXTT7=
EXTT8=
EXTT9=
EXTT10=
EXTT11=
EXTT12=
EXTT13=
EXTT14=
PLAYORDER=
